<svg width="25" height="25" viewBox="0 0 25 25" fill="none" xmlns="http://www.w3.org/2000/svg">
<path d="M23.6765 19.4195C23.6765 20.3925 23.1208 21.2822 22.2424 21.7006C20.584 22.4906 17.424 23.5552 12.4372 23.5552C7.45042 23.5552 4.29041 22.4906 2.63201 21.7006C1.75359 21.2822 1.19788 20.3925 1.19788 19.4195C1.19788 18.0218 2.33098 16.8887 3.72874 16.8887H21.1456C22.5434 16.8887 23.6765 18.0218 23.6765 19.4195Z" fill="#E59328"/>
<path d="M23.5788 15.5641C23.5788 14.5911 23.0231 13.7014 22.1447 13.283C20.4863 12.493 17.3263 11.4284 12.3395 11.4284C7.35276 11.4284 4.19275 12.493 2.53435 13.283C1.65593 13.7014 1.10022 14.5911 1.10022 15.5641C1.10022 15.5781 1.10105 15.592 1.10129 15.6059C1.10105 15.62 1.10022 15.6338 1.10022 15.6478C1.10022 16.6208 1.65593 17.5105 2.53435 17.9289C4.19275 18.7189 7.35276 19.7835 12.3395 19.7835C17.3263 19.7835 20.4863 18.7189 22.1447 17.9289C23.0231 17.5105 23.5788 16.6208 23.5788 15.6478C23.5788 15.6338 23.578 15.6199 23.5778 15.6059C23.578 15.5919 23.5788 15.5781 23.5788 15.5641Z" fill="#7A2F18"/>
<path d="M12.5898 18.0513C18.291 18.0513 22.9128 16.477 22.9128 14.535C22.9128 12.5929 18.291 11.0186 12.5898 11.0186C6.88851 11.0186 2.26672 12.5929 2.26672 14.535C2.26672 16.477 6.88851 18.0513 12.5898 18.0513Z" fill="#DB1D1D"/>
<path d="M12.5898 16.7127C18.291 16.7127 22.9128 15.1384 22.9128 13.1963C22.9128 11.2543 18.291 9.67999 12.5898 9.67999C6.88851 9.67999 2.26672 11.2543 2.26672 13.1963C2.26672 15.1384 6.88851 16.7127 12.5898 16.7127Z" fill="#FF473E"/>
<path d="M23.7793 10.9812C22.5993 10.3263 20.8748 10.0685 19.3588 10.0692C18.5319 10.0696 17.69 10.1559 16.9007 10.3173C16.2859 10.443 15.685 10.602 15.0528 10.6838C14.9468 10.6882 14.8407 10.6892 14.7347 10.6868C14.6619 10.6755 14.5896 10.6622 14.5176 10.6468C14.2555 10.5588 14.0066 10.4557 13.7525 10.3572C13.3454 10.1995 12.9191 10.0761 12.4806 9.95976C11.7091 9.75512 10.8966 9.65756 10.0698 9.60878C8.50833 9.51664 6.89862 9.75199 5.51034 10.2248C5.28803 10.2432 5.06871 10.2881 4.85706 10.3585C3.43993 10.8311 2.23973 11.5854 1.39681 12.4664C1.21781 12.6536 1.05931 12.8492 0.923275 13.0513C0.626742 13.4919 0.360726 13.9451 0.623763 14.4323C1.11624 15.3445 2.58807 15.6773 3.94202 15.4633C4.87591 15.3156 5.60413 14.9111 6.33651 14.5284C6.5201 14.4413 6.71014 14.362 6.91058 14.2939C6.93285 14.2892 6.95506 15.115 6.97747 15.1107C7.16527 15.2234 7.34212 15.3438 7.53407 15.4538C7.86102 15.6411 8.21082 15.8216 8.5828 15.9696C9.34456 16.2726 10.2556 16.4667 11.152 16.4613C12.0678 16.4557 12.9424 16.2637 13.665 15.8973C14.0499 15.702 14.3657 15.4717 14.6097 15.1912C14.699 15.0886 14.7762 14.9823 14.8606 14.8787C14.9297 14.8906 15.4525 14.2331 15.6348 14.3198C16.0912 14.56 16.5368 14.8124 17.0314 15.0172C17.7154 15.3005 18.5203 15.4705 19.3322 15.472C20.8953 15.4748 22.37 14.8826 23.4552 14.1847C24.0152 13.8246 24.5389 13.3466 24.693 12.8321C24.897 12.1504 24.6061 11.4402 23.7793 10.9812ZM7.77269 12.0486C8.09918 11.9785 8.42895 11.9247 8.76078 11.8872C9.21854 11.8585 9.67766 11.8585 10.1354 11.8872C10.5652 11.9358 10.9853 12.0099 11.3937 12.1103C11.7177 12.2126 12.022 13.1662 12.332 13.2841C12.018 13.5273 11.841 13.8176 11.5823 14.0858C11.5692 14.0947 11.5556 14.1034 11.5421 14.112C11.5085 14.1254 11.4747 14.1382 11.4407 14.1504C11.3771 14.1633 11.3132 14.1746 11.249 14.1844C11.1668 14.1866 11.0846 14.1865 11.0024 14.1841C10.8798 14.1659 10.7579 14.1431 10.637 14.1158C10.4427 14.0516 10.2522 13.9766 10.0662 13.8913C9.72533 13.7002 9.41698 13.4866 9.06107 13.306C8.67669 13.1112 8.24032 12.1269 7.77269 12.0486ZM20.5965 12.8149C20.348 12.932 20.089 13.0373 19.815 13.1262C19.6933 13.1538 19.5707 13.1768 19.4473 13.1951C19.3836 13.1966 19.32 13.1967 19.2564 13.1954C19.1932 13.1854 19.1304 13.1739 19.0678 13.1608C18.85 13.0866 18.6452 12.9985 18.4467 12.9032C18.2124 12.7791 17.9809 12.6509 17.7435 12.5285C18.068 12.4622 18.3949 12.4041 18.7308 12.3642C19.1582 12.338 19.5868 12.3382 20.0141 12.3649C20.3643 12.4051 20.7119 12.4643 21.0556 12.5423C20.9107 12.6386 20.7563 12.7287 20.5965 12.8149Z" fill="#00B89C"/>
<path d="M5.61748 16.2125C4.96215 15.1525 3.70244 13.1984 2.12856 11.1642C-0.132866 11.548 17.8902 8.51007 17.8902 8.51007C22.9232 9.0402 23.588 11.5302 23.5905 12.7998C23.5914 13.2061 23.2428 13.5258 22.8375 13.4971C12.0553 12.7337 8.01826 15.1405 6.68857 16.3634C6.3646 16.6613 5.84892 16.5869 5.61748 16.2125Z" fill="#FECB21"/>
<path d="M12.3395 1.24936C6.32415 1.24936 1.10022 5.04858 1.10022 9.62485C1.10022 12.0648 6.1322 14.0428 12.3395 14.0428C18.5469 14.0428 23.5788 12.0648 23.5788 9.62485C23.5788 5.17802 18.3549 1.24936 12.3395 1.24936Z" fill="#E59328"/>
<path d="M5.29104 6.50918L5.76277 7.5313C5.7895 7.58923 5.79213 7.65541 5.77007 7.71528C5.74801 7.77514 5.70307 7.8238 5.64514 7.85053C5.61145 7.86591 5.57469 7.87338 5.53767 7.87235C5.50065 7.87133 5.46435 7.86185 5.43156 7.84463L4.43713 7.31713C4.13449 7.15659 4.01926 6.7811 4.17981 6.47846C4.34035 6.17583 4.71584 6.06059 5.01848 6.22114C5.1385 6.28461 5.23428 6.38584 5.29104 6.50918ZM15.2349 2.89209C14.9323 2.73154 14.5568 2.84677 14.3963 3.14941C14.2357 3.45205 14.3509 3.82754 14.6536 3.98808L15.648 4.51557C15.6808 4.53279 15.7171 4.54228 15.7541 4.5433C15.7911 4.54432 15.8279 4.53686 15.8616 4.52148C15.9195 4.49474 15.9645 4.44609 15.9865 4.38622C16.0086 4.32635 16.006 4.26017 15.9792 4.20224L15.5075 3.18012C15.4507 3.05681 15.3549 2.95559 15.2349 2.89209ZM9.63923 4.14907C9.44275 3.8684 9.05593 3.80019 8.77526 3.99672C8.4946 4.19321 8.42639 4.58003 8.62292 4.86069L9.26858 5.78281C9.28993 5.81306 9.31794 5.83802 9.35044 5.85577C9.38294 5.87352 9.41908 5.88359 9.45607 5.8852C9.51983 5.88774 9.58199 5.86485 9.62887 5.82156C9.67575 5.77828 9.70352 5.71815 9.70608 5.65439L9.75095 4.52959C9.75646 4.39393 9.71721 4.26022 9.63923 4.14907ZM21.0412 6.8914C21.1896 6.56753 21.0474 6.18466 20.7236 6.03628C20.3997 5.88784 20.0168 6.03007 19.8684 6.3539L19.5045 7.14804C19.4844 7.19179 19.4774 7.24038 19.4843 7.288C19.4912 7.33562 19.5117 7.38024 19.5433 7.41653C19.5749 7.45281 19.6163 7.47921 19.6625 7.49257C19.7087 7.50593 19.7578 7.50568 19.8039 7.49184L20.6405 7.24038C20.8107 7.18838 20.9612 7.06587 21.0412 6.8914ZM11.8392 9.51118C11.5024 9.44834 11.1784 9.67036 11.1155 10.0071C11.0527 10.3439 11.2747 10.6679 11.6115 10.7308L12.7181 10.9373C12.7545 10.9439 12.792 10.9422 12.8276 10.9321C12.8632 10.922 12.8961 10.9039 12.9237 10.8792C12.9471 10.858 12.9661 10.8324 12.9796 10.8038C12.9932 10.7753 13.0009 10.7444 13.0025 10.7128C13.0041 10.6813 12.9994 10.6497 12.9888 10.6199C12.9782 10.5902 12.9618 10.5628 12.9406 10.5394L12.1853 9.70473C12.0943 9.60394 11.9727 9.53592 11.8392 9.51118ZM17.8035 10.4513C17.9407 10.7653 18.3064 10.9086 18.6203 10.7714C18.9343 10.6343 19.0776 10.2686 18.9404 9.95464L18.4898 8.92309C18.4748 8.88921 18.4523 8.85921 18.4239 8.83539C18.3956 8.81156 18.3621 8.79454 18.3262 8.78564C18.2955 8.77816 18.2636 8.77681 18.2324 8.78165C18.2012 8.78649 18.1712 8.79744 18.1442 8.81386C18.1172 8.83029 18.0937 8.85186 18.0751 8.87737C18.0564 8.90287 18.043 8.9318 18.0355 8.9625L17.7692 10.0562C17.737 10.1881 17.7491 10.327 17.8035 10.4513ZM8.48571 10.1431C8.52507 9.79882 8.2779 9.48789 7.93366 9.44853C7.58942 9.40918 7.27849 9.65634 7.23913 10.0006L7.10988 11.1316C7.10667 11.1605 7.10966 11.1897 7.11866 11.2174C7.12765 11.245 7.14244 11.2704 7.16203 11.2918C7.19841 11.3314 7.24903 11.355 7.30275 11.3572C7.35647 11.3595 7.4089 11.3404 7.44851 11.304L8.28684 10.5338C8.39799 10.4317 8.4686 10.293 8.48571 10.1431ZM14.1712 8.09931C14.4927 8.21743 14.8492 8.05249 14.9673 7.7309C15.0854 7.40932 14.9205 7.05288 14.5989 6.93476L13.5422 6.54668C13.5074 6.53406 13.4701 6.52958 13.4333 6.53358C13.3965 6.53757 13.3611 6.54994 13.3298 6.56972C13.276 6.60405 13.2381 6.65834 13.2243 6.72065C13.2106 6.78295 13.2221 6.84817 13.2565 6.90195L13.8621 7.85083C13.9351 7.96534 14.0437 8.05267 14.1712 8.09931Z" fill="#FFCD7D"/>
</svg>
