<svg width="25" height="25" viewBox="0 0 25 25" fill="none" xmlns="http://www.w3.org/2000/svg">
<path d="M22.4297 23.3738C21.8246 20.118 19.4473 7.8832 19.8023 5.8664C19.7769 5.6457 19.6547 5.08515 19.6547 5.08515C19.7637 4.07343 19.6121 3.02539 19.1516 2.36054C18.7744 2.31873 18.3965 2.28435 18.018 2.25742C16.6289 2.15429 11.6555 2.46562 10.0726 2.69492C8.35194 2.94453 4.22967 3.52812 1.73475 4.07539C-0.76017 4.62304 2.27421 7.93203 2.74608 8.48242C3.21796 9.03203 7.45311 13.4418 10.4836 15.8492C14.4211 18.9676 23.089 26.918 22.4297 23.3758" fill="#D08E3F"/>
<path d="M4.20311 7.2582C4.27264 5.91406 2.88866 3.84062 2.88632 3.83906C2.6371 3.8832 2.30741 3.95663 2.07538 4.00038C2.95975 4.86171 3.20858 6.22773 3.14139 7.52382C3.47108 7.44296 3.83085 7.35078 4.20311 7.25624M4.75468 3.50546C4.35858 3.56835 3.90507 3.65703 3.52264 3.7207C4.41093 4.58984 4.66483 5.85703 4.67421 7.13984C4.99061 7.06015 5.31717 6.97968 5.65272 6.90078C5.64882 5.67538 5.64725 4.31953 4.75468 3.50546Z" fill="#D99246"/>
<path d="M6.48085 3.22657C6.08632 3.28555 5.60702 3.36876 5.20233 3.43126C5.88475 4.37735 6.05428 5.59375 6.10077 6.8004C6.29843 6.75586 6.49139 6.71016 6.69491 6.66797C6.98397 6.60743 7.28788 6.55235 7.59882 6.49961C7.51171 5.28516 7.31718 4.09844 6.48085 3.22657ZM10.384 4.35157C10.2305 3.76954 9.941 3.26055 9.63788 2.75547L8.27499 2.9504C8.8535 3.97383 9.21288 5.07422 9.391 6.23008C9.7703 6.17657 10.1527 6.12227 10.5348 6.06602C10.5465 5.48477 10.5293 4.90313 10.384 4.35157ZM11.9687 3.16329C11.873 2.94766 11.7734 2.73594 11.675 2.52383C11.0308 2.57969 10.4746 2.63594 10.1008 2.68907C10.3633 3.12501 10.6035 3.57227 10.732 4.06094C10.9016 4.70547 10.9574 5.35 10.9726 5.99883C11.4699 5.92337 11.9654 5.83729 12.459 5.74063C12.4555 4.86172 12.3074 3.92657 11.968 3.16329M13.2851 2.40196C12.8758 2.4293 12.4742 2.45899 12.0965 2.48868C12.3359 3.02227 12.568 3.55704 12.6781 4.14493C12.7726 4.64922 12.8504 5.14649 12.8902 5.64688C13.2154 5.5775 13.5382 5.49764 13.8582 5.40743C13.9035 5.39493 13.9566 5.38282 14.0062 5.36954C13.9351 4.3668 13.7488 3.26407 13.2851 2.40196ZM15.0914 2.29922C14.6449 2.32032 14.1832 2.34571 13.7246 2.37383C14.1367 3.26133 14.3465 4.28829 14.443 5.27305C14.8335 5.20238 15.2272 5.15037 15.6226 5.11719C15.7457 4.1629 15.6433 2.93047 15.0894 2.29922M16.9219 5.06055C16.9551 5.06055 16.9867 5.06563 17.0195 5.06641C17.1465 4.09805 17.1582 2.91251 16.8195 2.24102C16.4527 2.24727 16.0422 2.25899 15.6039 2.27657C16.034 3.06797 16.1848 4.13321 16.1328 5.0836C16.393 5.06993 16.6566 5.06016 16.9219 5.06055ZM18.3906 3.89219C18.4269 3.45508 18.5301 2.8293 18.4641 2.29063C18.3219 2.27891 18.1734 2.2668 18.0172 2.25547C17.7545 2.23968 17.4913 2.23317 17.2281 2.23594C17.3558 2.63243 17.4105 3.06251 17.4433 3.45313C17.489 4.00352 17.5226 4.55938 17.5035 5.10938C17.7613 5.14805 18.0047 5.20704 18.2406 5.27032C18.3215 4.82149 18.3512 4.36329 18.3902 3.89219M19.8187 3.85313C19.7836 3.37266 19.5379 2.43086 19.3723 2.38086C19.2508 2.34415 19.098 2.34844 18.884 2.32813C18.939 2.73204 18.9328 3.1504 18.9094 3.54454C18.8738 4.16407 18.8535 4.79688 18.764 5.41407C19.1156 5.50821 19.4558 5.58008 19.7992 5.57774C19.9148 5.1379 19.8519 4.30743 19.8187 3.85313Z" fill="#D99246"/>
<path d="M7.95974 3.01407C7.66755 3.05626 7.18435 3.11993 6.86951 3.16641C7.55271 4.1043 7.91326 5.2379 8.03435 6.43047C8.33787 6.38243 8.65076 6.33673 8.96599 6.29141C8.81052 5.12774 8.58982 4.02852 7.95974 3.01407Z" fill="#D99246"/>
<path d="M19.5547 5.32264C20.3703 6.1871 20.7129 9.06249 21.85 12.1699C22.8898 15.0117 22.5078 17.6504 22.809 19.4512C23.1101 21.2527 23.4254 21.8269 23.2187 22.2867C22.8984 23 21.9941 24.2137 21.7211 22.4703C21.6828 22.218 20.6965 22.3371 20.4402 22.1918C17.8578 20.7082 14.1551 17.1355 11.7723 15.1965C8.04765 12.1535 1.79452 7.19647 3.18671 6.46678C4.00585 6.03749 8.1371 5.05116 12.1441 4.64686C14.9453 4.36405 17.648 4.76757 19.5531 5.32264" fill="#EEE4A7"/>
<path d="M21.7269 17.0942C22.4738 18.5727 21.3418 21.0043 18.3023 20.2793C16.8562 19.6899 16.6578 17.7684 17.5922 16.9149C18.2914 16.2738 18.9195 16.1051 19.9965 16.1379C20.5301 16.2301 21.5203 16.6567 21.7269 17.0942Z" fill="#912235"/>
<path d="M18.6996 19.2129C18.4605 18.9625 17.9973 18.9383 17.7691 18.6766C17.5652 18.4492 17.4699 18.2332 17.4516 17.9352C17.4309 17.6117 17.5297 17.1953 17.7523 16.8836C16.4305 17.8242 17.1035 19.7211 18.1363 20.1606C19.2746 20.5836 20.132 20.3793 20.8785 19.9613C20.4336 20.193 19.1063 19.6367 18.6992 19.2125" fill="#871830"/>
<path d="M18.1684 18.7793C18.3102 18.6762 18.8137 18.793 18.8895 18.8586C18.9664 18.9242 18.602 19.0461 18.4098 19.1332C18.2094 19.2227 18.0125 19.3172 17.9363 19.2516C17.8606 19.1852 18.0258 18.8793 18.1684 18.7793ZM19.8598 17.7434C20.007 17.7352 20.1793 18.0309 20.1723 18.1102C20.1629 18.1894 19.8867 18.1191 19.7274 18.0965C19.5621 18.0734 19.3922 18.0559 19.4004 17.9766C19.4094 17.898 19.7164 17.7547 19.8598 17.7434ZM19.6266 16.9949C19.6266 17.0781 19.9231 17.1574 20.0004 17.1477C20.0754 17.1387 19.991 16.9891 19.9594 16.9004C19.9266 16.8098 19.9008 16.7148 19.8246 16.7258C19.7481 16.734 19.6285 16.9141 19.6266 16.9949ZM18.8813 17.0422C18.8102 16.991 18.4848 17.0957 18.4274 17.1414C18.3703 17.1871 18.5738 17.2375 18.6797 17.2766C18.7863 17.3164 18.8934 17.3621 18.95 17.3156C19.0063 17.2703 18.9531 17.0953 18.8813 17.0422ZM21.2973 17.0223C21.2152 16.9781 20.902 17.1117 20.8524 17.1617C20.8012 17.2113 21.0164 17.241 21.1277 17.2684C21.2445 17.2965 21.3582 17.3301 21.4086 17.2812C21.4598 17.232 21.3774 17.0664 21.2973 17.0223ZM17.4027 17.998C17.4024 18.0805 17.6992 18.159 17.775 18.1492C17.8504 18.1402 17.7672 17.9914 17.7344 17.9027C17.7016 17.8121 17.6758 17.718 17.5984 17.7273C17.5223 17.7363 17.4035 17.9164 17.4027 17.998ZM19.3949 19.6035C19.5004 19.6066 19.7117 19.3793 19.7262 19.3211C19.7399 19.2617 19.518 19.3234 19.3914 19.3469C19.2625 19.3691 19.132 19.3875 19.1156 19.4453C19.1012 19.5051 19.2891 19.6016 19.3949 19.6035ZM20.3309 18.4551C20.4613 18.2598 21.2977 18.1652 21.4629 18.2125C21.6289 18.2598 21.1883 18.5894 20.9711 18.7906C20.7465 18.9957 20.532 19.2117 20.3649 19.1637C20.2008 19.1172 20.2008 18.6512 20.3309 18.4551Z" fill="#A32F4E"/>
<path d="M12.7848 6.90936C13.7063 8.73397 11.2902 11.4695 8.16329 10.1961C6.62696 9.61717 6.36016 7.51757 7.51329 6.46366C8.37618 5.67303 9.57423 5.48592 10.9024 5.52577C11.8813 5.68163 12.3691 6.08905 12.7852 6.90936" fill="#912235"/>
<path d="M9.05077 9.52423C8.75585 9.21603 8.18436 9.18634 7.90311 8.86368C7.65116 8.58282 7.53436 8.31681 7.51249 7.94806C7.48749 7.54962 7.53866 6.65314 7.81327 6.26837C7.70585 6.34142 7.3621 6.6629 6.98749 7.30978C6.87733 7.80196 6.62499 9.61915 8.15936 10.1996C9.1664 10.6231 10.2043 10.5395 11.3664 10.1442C10.5199 10.282 9.55429 10.0481 9.05233 9.52462" fill="#871830"/>
<path d="M8.39414 8.98437C8.56953 8.85859 9.19024 9.00195 9.28399 9.08359C9.37813 9.16367 8.92852 9.31562 8.6918 9.42148C8.44453 9.53125 8.20156 9.64882 8.10742 9.56796C8.01484 9.48554 8.21836 9.10937 8.39414 8.98437ZM10.4852 7.71132C10.6668 7.70078 10.8797 8.06523 10.8703 8.16367C10.859 8.26132 10.518 8.175 10.3219 8.14609C10.1184 8.11796 9.90742 8.09726 9.91797 7.99804C9.92969 7.90078 10.3082 7.72421 10.4852 7.71132ZM10.1953 6.78789C10.1953 6.88906 10.5613 6.9875 10.6563 6.97617C10.7492 6.96367 10.6449 6.7789 10.6051 6.6707C10.5652 6.55859 10.5324 6.44179 10.4391 6.45468C10.3445 6.46562 10.1973 6.6875 10.1953 6.78789ZM9.275 6.84531C9.18711 6.78203 8.78594 6.91132 8.71484 6.96796C8.64453 7.0246 8.89531 7.08632 9.02617 7.13437C9.1586 7.1832 9.28985 7.23984 9.36016 7.18242C9.4293 7.12773 9.36367 6.91132 9.275 6.84531ZM12.2574 6.82109C12.1559 6.76679 11.7699 6.93164 11.7086 6.99296C11.6457 7.05429 11.9113 7.09179 12.0488 7.1246C12.1922 7.15976 12.3332 7.20156 12.3949 7.1414C12.4582 7.08085 12.3566 6.87617 12.2574 6.82109ZM7.44922 8.02734C7.44844 8.12812 7.81563 8.22656 7.90899 8.21445C8.00156 8.20195 7.89961 8.01836 7.85899 7.90976C7.81797 7.79765 7.78633 7.68085 7.69102 7.69335C7.59649 7.70468 7.45 7.92773 7.44922 8.02734ZM9.90899 10.0047C10.0387 10.0078 10.2992 9.72773 10.3164 9.65585C10.334 9.5832 10.0602 9.65898 9.9043 9.68789C9.74492 9.71601 9.58438 9.7375 9.56328 9.81015C9.5461 9.88359 9.77813 10.0023 9.90899 10.0047ZM11.0637 8.58945C11.2242 8.34921 12.2566 8.2332 12.4605 8.29101C12.6656 8.34882 12.1215 8.75546 11.8535 9.00273C11.5766 9.25664 11.3121 9.52382 11.1059 9.46523C10.9031 9.40664 10.9031 8.83164 11.0637 8.58945Z" fill="#A32F4E"/>
<path d="M16.4375 14.0558C16.0344 15.7777 12.5629 15.6367 11.5477 13.6652C10.852 12.4289 11.6359 11.0734 13.3027 10.923C14.7285 10.973 14.8891 10.9976 15.7469 11.6418C16.7215 12.4851 16.568 13.5586 16.4371 14.0566" fill="#912235"/>
<path d="M12.5117 13.7149C12.4871 13.3465 12.1254 13.0094 12.1172 12.6387C12.1059 12.3129 12.177 12.0707 12.3668 11.8141C12.5703 11.5371 12.7145 11.1559 13.1109 11.0531C11.5688 11.0941 11.0051 12.6273 11.5445 13.6648C11.977 14.5055 12.8574 15.0137 13.7543 15.1848C13.1168 14.8059 12.5531 14.341 12.5117 13.7149Z" fill="#871830"/>
<path d="M12.3735 12.9922C12.5602 13.0066 12.8914 13.4469 12.9082 13.5535C12.9262 13.6594 12.5434 13.5098 12.3277 13.4484C12.1027 13.3836 11.877 13.3262 11.8594 13.2203C11.843 13.1137 12.1879 12.9781 12.3735 12.9922ZM14.4688 13.3086C14.5953 13.4019 14.5328 13.7617 14.4727 13.8219C14.411 13.8801 14.2324 13.634 14.1188 13.5055C13.9996 13.3742 13.8715 13.2426 13.9336 13.1836C13.9953 13.1258 14.3438 13.2195 14.4688 13.3086ZM14.7891 12.5351C14.732 12.6031 14.9199 12.8707 14.9899 12.9164C15.0582 12.9598 15.091 12.7801 15.1254 12.6859C15.1613 12.5894 15.2051 12.4937 15.136 12.45C15.0664 12.4055 14.8461 12.4703 14.7891 12.5351ZM14.1485 12.0641C14.1258 11.9727 13.7883 11.8351 13.709 11.8328C13.6313 11.8316 13.7625 12.0125 13.8227 12.1168C13.8828 12.2226 13.9387 12.3336 14.0172 12.3344C14.0942 12.3355 14.1703 12.1562 14.1485 12.0641ZM16.1367 13.707C16.0992 13.6148 15.752 13.5094 15.6774 13.5156C15.6016 13.5215 15.7563 13.6937 15.8293 13.7918C15.9051 13.8953 15.975 14.0008 16.0496 13.9961C16.1254 13.9906 16.1715 13.798 16.1367 13.707ZM12.2817 11.832C12.225 11.8984 12.4133 12.1672 12.4824 12.2117C12.5504 12.2551 12.5848 12.0758 12.6184 11.9816C12.6539 11.8844 12.6977 11.7902 12.6277 11.7453C12.5586 11.6996 12.3383 11.766 12.2817 11.832ZM12.8113 14.5078C12.8953 14.5816 13.2238 14.5414 13.275 14.5039C13.327 14.4648 13.1035 14.3629 12.9848 14.2957C12.8629 14.225 12.7445 14.1508 12.6902 14.1875C12.6379 14.225 12.7258 14.4336 12.8113 14.5078ZM14.3633 14.2148C14.6031 14.1449 15.352 14.6414 15.4543 14.793C15.5586 14.9457 14.9715 14.9129 14.6563 14.9281C14.332 14.9422 14.0086 14.9715 13.9047 14.8191C13.8024 14.6672 14.1219 14.2859 14.3633 14.2148Z" fill="#A32F4E"/>
<path d="M21.5273 11.0789C21.4832 11.0785 21.4379 11.0719 21.3945 11.0738C20.1019 11.1289 19.3551 12.2082 20.0211 13.3926C20.491 14.3051 21.5098 14.8039 22.4809 14.8941C22.2352 13.218 21.8012 12.2723 21.5273 11.0789Z" fill="#912235"/>
<path d="M20.9441 13.4395C20.9207 13.0875 20.5742 12.7645 20.5672 12.4098C20.5566 12.0973 20.6242 11.8656 20.8059 11.6207C20.9711 11.3965 21.2352 11.2414 21.541 11.1387C21.5367 11.1186 21.5322 11.0985 21.5274 11.0785C21.482 11.077 21.4356 11.0723 21.3902 11.0738C20.0973 11.1281 19.3524 12.2082 20.0176 13.393C20.432 14.1984 21.275 14.6852 22.134 14.8484C21.5242 14.4848 20.984 14.0398 20.9441 13.4398" fill="#871830"/>
<path d="M20.8125 12.7481C20.991 12.7621 21.3086 13.1832 21.3246 13.2852C21.3418 13.3863 20.9754 13.2434 20.7687 13.1848C20.5527 13.1227 20.3375 13.0676 20.3199 12.966C20.3047 12.8649 20.6347 12.7344 20.8125 12.7481ZM20.7265 11.6379C20.6723 11.7012 20.8523 11.959 20.9187 12.0012C20.9836 12.043 21.0164 11.8715 21.0488 11.7813C21.0828 11.6883 21.1242 11.5973 21.0574 11.5547C20.991 11.5113 20.7801 11.5746 20.7265 11.6379ZM21.2305 14.1992C21.3105 14.2703 21.625 14.232 21.6738 14.1961C21.7242 14.1586 21.5097 14.0606 21.3961 13.9961C21.2793 13.9289 21.1656 13.8578 21.114 13.893C21.064 13.9289 21.1484 14.1289 21.2305 14.1992Z" fill="#A32F4E"/>
<path d="M20.2887 9.10235C19.8539 10.725 16.5617 10.4867 15.6578 8.58321C15.0344 7.3879 15.7277 6.21993 17.0519 6.08673C18.3762 5.95353 18.9914 6.35743 19.5828 6.78829C20.4047 7.45978 20.4285 8.63282 20.2887 9.10235Z" fill="#912235"/>
<path d="M16.5703 8.66014C16.5586 8.30975 16.2246 7.97811 16.2293 7.62694C16.2285 7.31639 16.3031 7.08905 16.4902 6.85038C16.6934 6.59335 16.584 6.19218 16.9633 6.10663C15.4977 6.33944 15.1731 7.58163 15.6535 8.58319C16.0391 9.39413 16.859 9.90428 17.7067 10.093C17.1129 9.71444 16.591 9.25585 16.5703 8.66014Z" fill="#871830"/>
<path d="M16.4609 7.96953C16.6371 7.98828 16.9394 8.41602 16.9519 8.51719C16.9656 8.61836 16.6074 8.46445 16.4043 8.39961C16.1926 8.33164 15.9793 8.27109 15.966 8.16914C15.9535 8.06836 16.2852 7.94961 16.4609 7.96953ZM18.4414 8.33359C18.559 8.42656 18.4887 8.7668 18.4301 8.82188C18.3695 8.87539 18.2074 8.63555 18.1031 8.51094C17.9945 8.38203 17.8769 8.25391 17.9371 8.19883C17.9973 8.14609 18.3262 8.24492 18.4414 8.33359ZM18.7695 7.60899C18.7137 7.67109 18.884 7.93164 18.9488 7.97656C19.0121 8.01992 19.0488 7.85 19.0844 7.76211C19.1215 7.67109 19.1648 7.58164 19.1012 7.53906C19.0371 7.49375 18.825 7.54883 18.7695 7.60899ZM18.1746 7.14063C18.1555 7.05352 17.8391 6.91289 17.7637 6.90899C17.6902 6.90469 17.8098 7.08047 17.8637 7.18125C17.9176 7.28359 17.9672 7.39024 18.0418 7.39336C18.1144 7.39766 18.193 7.2293 18.1746 7.14063ZM20.0156 8.75938C19.9836 8.6707 19.6562 8.55977 19.5859 8.56367C19.5125 8.56719 19.6555 8.73555 19.7219 8.83125C19.7902 8.93164 19.8535 9.03438 19.9246 9.03125C19.9969 9.02774 20.0465 8.84688 20.0156 8.75938ZM16.4102 6.86524C16.3539 6.92656 16.525 7.1875 16.5887 7.23125C16.6523 7.275 16.6906 7.10625 16.7254 7.01758C16.7617 6.92617 16.8062 6.83828 16.7414 6.79297C16.6769 6.74805 16.4648 6.80469 16.4102 6.86524ZM16.832 9.42188C16.9102 9.49531 17.2227 9.46641 17.273 9.43125C17.3234 9.39648 17.1137 9.29297 17.0031 9.22539C16.8894 9.15547 16.7797 9.08047 16.7269 9.11367C16.6754 9.14883 16.7535 9.34922 16.832 9.42188ZM18.3144 9.18867C18.5449 9.1293 19.2406 9.62344 19.3336 9.7707C19.4277 9.91836 18.8711 9.86992 18.5719 9.875C18.2633 9.87891 17.9555 9.89727 17.8613 9.74844C17.7684 9.60195 18.084 9.24922 18.3144 9.18867Z" fill="#A32F4E"/>
<path d="M2.43476 5.716C2.43476 6.07538 2.19609 6.36678 1.90195 6.36678C1.60781 6.36678 1.16562 5.77303 1.16562 5.41405C1.16562 5.05506 1.51249 4.92694 1.79999 5.0371C2.07538 5.14178 2.43476 5.35741 2.43476 5.716Z" fill="#BD803C"/>
</svg>
